<?xml version="1.0" encoding="UTF-8"?>
<svg id="Layer_1" data-name="Layer 1" xmlns="http://www.w3.org/2000/svg" xmlns:xlink="http://www.w3.org/1999/xlink" viewBox="0 0 800 800">
  <defs>
    <style>
      .cls-1 {
        fill: url(#linear-gradient);
      }

      .cls-1, .cls-2, .cls-3, .cls-4, .cls-5, .cls-6, .cls-7 {
        stroke-width: 0px;
      }

      .cls-3 {
        fill: #3db9f9;
      }

      .cls-4 {
        fill: #422200;
      }

      .cls-5 {
        fill: #fff;
      }

      .cls-6 {
        fill: url(#linear-gradient-2);
      }

      .cls-7 {
        fill: #63d3fd;
      }
    </style>
    <linearGradient id="linear-gradient" x1="53.33" y1="333.33" x2="746.67" y2="333.33" gradientUnits="userSpaceOnUse">
      <stop offset="0" stop-color="#aa3d00"/>
      <stop offset="1" stop-color="#422200"/>
    </linearGradient>
    <linearGradient id="linear-gradient-2" x1="120" y1="640" x2="680" y2="640" xlink:href="#linear-gradient"/>
  </defs>
  <g>
    <path class="cls-7" d="m693.33,746.67H106.67c-14.67,0-26.67-12-26.67-26.67s12-26.67,26.67-26.67h586.67c14.67,0,26.67,12,26.67,26.67s-12,26.67-26.67,26.67"/>
    <path class="cls-7" d="m93.33,93.33c0,22.67-17.33,40-40,40S13.33,116,13.33,93.33s17.33-40,40-40,40,17.33,40,40"/>
    <path class="cls-7" d="m440,93.33c0,22.67-17.33,40-40,40s-40-17.33-40-40,17.33-40,40-40c22.67,0,40,17.33,40,40"/>
    <path class="cls-7" d="m786.67,93.33c0,22.67-17.33,40-40,40s-40-17.33-40-40,17.33-40,40-40c22.67,0,40,17.33,40,40"/>
    <path class="cls-7" d="m693.33,586.67H106.67c-14.67,0-26.67-12-26.67-26.67s12-26.67,26.67-26.67h586.67c14.67,0,26.67,12,26.67,26.67s-12,26.67-26.67,26.67"/>
  </g>
  <g>
    <path class="cls-3" d="m693.33,533.33h-40c14.67,0,26.67,12,26.67,26.67s-12,26.67-26.67,26.67h40c14.67,0,26.67-12,26.67-26.67s-12-26.67-26.67-26.67"/>
    <path class="cls-3" d="m693.33,693.33h-40c14.67,0,26.67,12,26.67,26.67s-12,26.67-26.67,26.67h40c14.67,0,26.67-12,26.67-26.67s-12-26.67-26.67-26.67"/>
  </g>
  <g>
    <path class="cls-5" d="m106.67,533.33h40c-14.67,0-26.67,12-26.67,26.67s12,26.67,26.67,26.67h-40c-14.67,0-26.67-12-26.67-26.67s12-26.67,26.67-26.67"/>
    <path class="cls-5" d="m106.67,693.33h40c-14.67,0-26.67,12-26.67,26.67s12,26.67,26.67,26.67h-40c-14.67,0-26.67-12-26.67-26.67s12-26.67,26.67-26.67"/>
  </g>
  <polygon class="cls-1" points="573.33 360 400 133.33 226.67 360 53.33 133.33 146.67 533.33 400 533.33 653.33 533.33 746.67 133.33 573.33 360"/>
  <polygon class="cls-4" points="689.33 208 613.33 533.33 653.33 533.33 746.67 133.33 689.33 208"/>
  <polygon class="cls-5" points="110.67 208 186.67 533.33 146.67 533.33 53.33 133.33 110.67 208"/>
  <polygon class="cls-6" points="120 693.33 680 693.33 680 586.67 120 586.67 120 693.33"/>
  <polygon class="cls-4" points="640 693.33 680 693.33 680 586.67 640 586.67 640 693.33"/>
  <polygon class="cls-5" points="120 693.33 160 693.33 160 586.67 120 586.67 120 693.33"/>
  <path class="cls-7" d="m453.33,373.33c0,52-24,93.33-53.33,93.33s-53.33-41.33-53.33-93.33,24-93.33,53.33-93.33,53.33,41.33,53.33,93.33"/>
  <path class="cls-2" d="m653.33,546.67H146.67c-6.67,0-12-4-13.33-10.67L40,136c-1.33-5.33,1.33-12,8-14.67,5.33-2.67,12-1.33,16,4l162.67,213.33,162.67-213.33c5.33-6.67,16-6.67,21.33,0l162.67,213.33,162.67-213.33c4-5.33,10.67-6.67,16-4s9.33,9.33,6.67,14.67l-93.33,400c0,6.67-5.33,10.67-12,10.67Zm-496-26.67h485.33l77.33-329.33-136,177.33c-5.33,6.67-16,6.67-21.33,0l-162.67-213.33-162.67,213.33c-5.33,6.67-16,6.67-21.33,0L80,190.67l77.33,329.33Z"/>
  <path class="cls-2" d="m400,480c-37.33,0-66.67-46.67-66.67-106.67s29.33-106.67,66.67-106.67,66.67,46.67,66.67,106.67-29.33,106.67-66.67,106.67Zm0-186.67c-18.67,0-40,33.33-40,80s21.33,80,40,80,40-33.33,40-80-21.33-80-40-80Z"/>
  <path class="cls-2" d="m400,413.33c-8,0-13.33-5.33-13.33-13.33v-53.33c0-8,5.33-13.33,13.33-13.33s13.33,5.33,13.33,13.33v53.33c0,8-5.33,13.33-13.33,13.33Z"/>
  <path class="cls-2" d="m693.33,600H106.67c-22.67,0-40-17.33-40-40s17.33-40,40-40h586.67c22.67,0,40,17.33,40,40s-17.33,40-40,40Zm-586.67-53.33c-8,0-13.33,5.33-13.33,13.33s5.33,13.33,13.33,13.33h586.67c8,0,13.33-5.33,13.33-13.33s-5.33-13.33-13.33-13.33H106.67Z"/>
  <path class="cls-2" d="m693.33,760H106.67c-22.67,0-40-17.33-40-40s17.33-40,40-40h586.67c22.67,0,40,17.33,40,40s-17.33,40-40,40Zm-586.67-53.33c-8,0-13.33,5.33-13.33,13.33s5.33,13.33,13.33,13.33h586.67c8,0,13.33-5.33,13.33-13.33s-5.33-13.33-13.33-13.33H106.67Z"/>
  <path class="cls-2" d="m693.33,706.67H106.67v-133.33h586.67v133.33h0Zm-560-26.67h533.33v-80H133.33v80Z"/>
  <path class="cls-2" d="m346.67,653.33h-106.67c-8,0-13.33-5.33-13.33-13.33s5.33-13.33,13.33-13.33h106.67c8,0,13.33,5.33,13.33,13.33,0,8-5.33,13.33-13.33,13.33Z"/>
  <path class="cls-2" d="m560,653.33h-106.67c-8,0-13.33-5.33-13.33-13.33s5.33-13.33,13.33-13.33h106.67c8,0,13.33,5.33,13.33,13.33,0,8-5.33,13.33-13.33,13.33Z"/>
  <path class="cls-2" d="m413.33,640c0,8-5.33,13.33-13.33,13.33s-13.33-5.33-13.33-13.33,5.33-13.33,13.33-13.33,13.33,5.33,13.33,13.33"/>
  <path class="cls-2" d="m626.67,640c0,8-5.33,13.33-13.33,13.33s-13.33-5.33-13.33-13.33,5.33-13.33,13.33-13.33,13.33,5.33,13.33,13.33"/>
  <path class="cls-2" d="m173.33,640c0-8,5.33-13.33,13.33-13.33s13.33,5.33,13.33,13.33-5.33,13.33-13.33,13.33-13.33-5.33-13.33-13.33"/>
  <path class="cls-2" d="m53.33,146.67C24,146.67,0,122.67,0,93.33s24-53.33,53.33-53.33,53.33,24,53.33,53.33-24,53.33-53.33,53.33Zm0-80c-14.67,0-26.67,12-26.67,26.67s12,26.67,26.67,26.67,26.67-12,26.67-26.67-12-26.67-26.67-26.67Z"/>
  <path class="cls-2" d="m400,146.67c-29.33,0-53.33-24-53.33-53.33s24-53.33,53.33-53.33,53.33,24,53.33,53.33-24,53.33-53.33,53.33Zm0-80c-14.67,0-26.67,12-26.67,26.67s12,26.67,26.67,26.67,26.67-12,26.67-26.67-12-26.67-26.67-26.67Z"/>
  <path class="cls-2" d="m746.67,146.67c-29.33,0-53.33-24-53.33-53.33s24-53.33,53.33-53.33,53.33,24,53.33,53.33-24,53.33-53.33,53.33Zm0-80c-14.67,0-26.67,12-26.67,26.67s12,26.67,26.67,26.67,26.67-12,26.67-26.67-12-26.67-26.67-26.67Z"/>
</svg>